<svg width="23" height="10" xmlns="http://www.w3.org/2000/svg" xmlns:xlink="http://www.w3.org/1999/xlink" xmlns:svgjs="http://svgjs.com/svgjs" viewBox="0 0.296 23 9.408" fill="#436372"><svg xmlns="http://www.w3.org/2000/svg" width="23" height="10" viewBox="2 1.996 22 8.999"><path paint-order="stroke fill markers" fill-rule="evenodd" d="M2.296 7.472l-.008-.002h16.956l-.1 2.859a.29.29 0 0 0 0 .41l.172.173a.288.288 0 0 0 .407 0L23.917 6.7A.287.287 0 0 0 24 6.496c0-.077-.03-.15-.084-.204l-4.192-4.213a.289.289 0 0 0-.204-.083c-.077 0-.15.03-.204.083l-.172.174a.287.287 0 0 0 0 .403l.113 2.866H2.292A.299.299 0 0 0 2 5.817v1.37c0 .16.137.285.296.285z"/></svg></svg>