<svg width="8" height="13" xmlns="http://www.w3.org/2000/svg" xmlns:xlink="http://www.w3.org/1999/xlink" xmlns:svgjs="http://svgjs.com/svgjs" viewBox="0.381 0 7.239 13" fill="#262626"><svg xmlns="http://www.w3.org/2000/svg" width="8" height="13" viewBox="1.767 1.709 6.113 10.977"><path paint-order="stroke fill markers" fill-rule="evenodd" d="M2.333 12.687c-.15 0-.3-.061-.41-.183a.6.6 0 0 1 .021-.831l4.547-4.475-4.547-4.474a.596.596 0 0 1-.177-.427c0-.145.052-.29.155-.404a.551.551 0 0 1 .8-.023L7.7 6.768l.014.014a.563.563 0 0 1 .113.169h.001a.61.61 0 0 1 .052.244v.003c0 .086-.018.17-.053.25v.001a.602.602 0 0 1-.112.165l-.015.014-4.977 4.899a.55.55 0 0 1-.39.16z"/></svg></svg>