<svg width="52" height="40" xmlns="http://www.w3.org/2000/svg" xmlns:xlink="http://www.w3.org/1999/xlink" xmlns:svgjs="http://svgjs.com/svgjs" viewBox="0.257 0 51.486 40" fill="#a3bbc8"><svg xmlns="http://www.w3.org/2000/svg" width="52" height="40" viewBox="2 1.998 50.047 38.882"><path paint-order="stroke fill markers" fill-rule="evenodd" d="M2.157 30.674c.24.312.608.384.622.387l48.04 9.798c.006.001.504.118.909-.212.404-.329.31-.804.31-.804l-6.251-37.08a.96.96 0 0 0-.449-.644c-.395-.239-.965-.051-.965-.051L9.179 16.118c-.132.065-.336.127-.507.452-.17.325-6.494 13.076-6.582 13.256-.09.182-.172.537.067.848zm45.586 6.436l-20.05-11.145 10.339-2.159 9.71 13.304zM10.047 18.227L22.57 25.21 4.736 28.924l5.311-10.697zm1.662-1.172L43.24 4.468l-5.558 17.588-12.372 2.583-13.6-7.584zM49.363 36.05l-9.779-13.397 4.903-15.52 4.876 28.917zm-3.886 1.898l-38.05-7.76 17.522-3.65 20.528 11.41z"/></svg></svg>