<svg width="19" height="19" xmlns="http://www.w3.org/2000/svg" xmlns:xlink="http://www.w3.org/1999/xlink" xmlns:svgjs="http://svgjs.com/svgjs" fill="#094074"><svg xmlns="http://www.w3.org/2000/svg" width="19" height="19" viewBox="1.822 1.899 17.021 17.021"><path paint-order="stroke fill markers" fill-rule="evenodd" d="M18.25 18.92a.59.59 0 0 1-.42-.174l-5.299-5.298a6.501 6.501 0 0 1-4.178 1.514A6.538 6.538 0 0 1 1.822 8.43a6.54 6.54 0 0 1 6.531-6.532c3.602 0 6.531 2.93 6.531 6.532a6.503 6.503 0 0 1-1.513 4.178l5.298 5.298a.591.591 0 0 1 0 .84.59.59 0 0 1-.42.173zM8.352 3.087A5.35 5.35 0 0 0 3.01 8.43a5.35 5.35 0 0 0 5.343 5.344 5.35 5.35 0 0 0 5.345-5.344 5.35 5.35 0 0 0-5.345-5.344z"/></svg></svg>