<svg width="19" height="19" xmlns="http://www.w3.org/2000/svg" xmlns:xlink="http://www.w3.org/1999/xlink" xmlns:svgjs="http://svgjs.com/svgjs" viewBox="0 0.004 19 18.992" fill="#888"><svg xmlns="http://www.w3.org/2000/svg" width="19" height="19" viewBox="2 1.559 17.201 17.194"><path paint-order="stroke fill markers" fill-rule="evenodd" d="M5.588 18.5c-1.95-.505-3.114-1.775-3.424-3.75-.23-1.45-.255-8.19.164-9.654.546-1.907 1.819-3.025 3.747-3.343.874-.143 2.583-.194 4.31-.194 1.605 0 3.224.045 4.199.097 1.18.063 2.261.442 3.14 1.285.835.801 1.263 1.802 1.371 2.935.128 1.353.211 7.748-.187 9.247-.533 1.96-1.813 3.12-3.797 3.439-.742.12-2.745.191-4.744.191-2.047 0-4.091-.075-4.779-.253zm.918-15.256c-1.5.173-2.508 1.099-2.747 2.59-.247 1.582-.245 7.493-.06 8.681.19 1.236.89 2.085 2.122 2.43.668.188 2.666.255 4.626.255 1.803 0 3.575-.057 4.24-.13 1.514-.165 2.515-1.098 2.754-2.603.247-1.513.247-7.03.106-8.446-.154-1.513-1.079-2.507-2.575-2.742-.74-.112-2.525-.162-4.3-.162-1.712 0-3.416.046-4.166.127zm-.315 6.913a4.443 4.443 0 0 1 4.446-4.406 4.37 4.37 0 0 1 4.372 4.413 4.45 4.45 0 0 1-4.446 4.406 4.366 4.366 0 0 1-4.372-4.413zm1.553-.027a2.827 2.827 0 0 0 2.803 2.88h.026a2.88 2.88 0 0 0 2.876-2.825 2.823 2.823 0 0 0-2.803-2.88h-.026a2.88 2.88 0 0 0-2.876 2.825zm6.444-4.55a1.034 1.034 0 0 1 1.03-1.03h.013c.567 0 1.026.463 1.021 1.036a1.043 1.043 0 0 1-1.043 1.029 1.028 1.028 0 0 1-1.021-1.036z"/></svg></svg>