<svg width="128" height="128" xmlns="http://www.w3.org/2000/svg" xmlns:xlink="http://www.w3.org/1999/xlink" xmlns:svgjs="http://svgjs.com/svgjs" viewBox="896 3835 128 128"><svg width="128" height="128" xmlns="http://www.w3.org/2000/svg" xmlns:xlink="http://www.w3.org/1999/xlink" xmlns:svgjs="http://svgjs.com/svgjs" fill="#a3bbc8" opacity=".4" x="896" y="3835"><svg xmlns="http://www.w3.org/2000/svg" xmlns:xlink="http://www.w3.org/1999/xlink" width="128" height="128" viewBox="2 2 127 127"><path paint-order="stroke fill markers" fill-rule="evenodd" d="M65.5 2C100.57 2 129 30.43 129 65.5S100.57 129 65.5 129 2 100.57 2 65.5 30.43 2 65.5 2z"/></svg></svg><svg width="99" height="99" xmlns="http://www.w3.org/2000/svg" xmlns:xlink="http://www.w3.org/1999/xlink" xmlns:svgjs="http://svgjs.com/svgjs" fill="#a3bbc8" x="910" y="3849"><svg xmlns="http://www.w3.org/2000/svg" xmlns:xlink="http://www.w3.org/1999/xlink" width="99" height="99" viewBox="2 2 98 98"><path paint-order="stroke fill markers" fill-rule="evenodd" d="M51 2c27.062 0 49 21.938 49 49s-21.938 49-49 49S2 78.062 2 51 23.938 2 51 2z"/></svg></svg><svg width="23" height="26" xmlns="http://www.w3.org/2000/svg" xmlns:xlink="http://www.w3.org/1999/xlink" xmlns:svgjs="http://svgjs.com/svgjs" viewBox="0.06 0 22.88 26" fill="#fff" x="949" y="3885"><svg xmlns="http://www.w3.org/2000/svg" width="23" height="26" viewBox="1.999 1.997 22 25"><path paint-order="stroke fill markers" fill-rule="evenodd" d="M22.684 16.74L6.64 26.536c-.5.306-1.08.46-1.663.46-.48 0-.96-.105-1.399-.316C2.606 26.21 2 25.293 2 24.295V4.7c0-.999.607-1.917 1.58-2.386a3.242 3.242 0 0 1 3.06.143l16.045 9.798c.822.502 1.315 1.343 1.315 2.241 0 .9-.493 1.741-1.315 2.244z"/></svg></svg></svg>