<svg width="20" height="13" xmlns="http://www.w3.org/2000/svg" xmlns:xlink="http://www.w3.org/1999/xlink" xmlns:svgjs="http://svgjs.com/svgjs" viewBox="0 0.171 20 12.658" fill="#a1a1a1"><svg xmlns="http://www.w3.org/2000/svg" width="20" height="13" viewBox="1.905 1.329 18.024 11.407"><path paint-order="stroke fill markers" fill-rule="evenodd" d="M7.267 12.727c-1.118-.066-2.135-.417-3.036-1.08-1.162-.856-1.893-1.997-2.2-3.407a5.157 5.157 0 0 1-.11-1.535 5.59 5.59 0 0 1 1.287-3.259 5.652 5.652 0 0 1 3.07-1.952c.313-.083.626-.132.944-.149.181-.005.363-.016.544-.016a5.36 5.36 0 0 1 2.698.74c.557.319.873.642 1.01.74-.57.56-1.117 1.109-1.675 1.657-.415-.357-.873-.685-1.667-.806a3.437 3.437 0 0 0-.487-.036c-1.594 0-2.93 1.153-3.285 2.663-.085.34-.11.686-.08 1.032a3.414 3.414 0 0 0 2.331 2.967 3.303 3.303 0 0 0 1.233.143c.599-.039 1.159-.198 1.666-.532.855-.582 1.13-1.492 1.133-1.717H7.588l.016-2.2.006-.093h5.364c.29 1.673.03 3.433-1.013 4.81-.72.95-1.679 1.547-2.822 1.844a6.143 6.143 0 0 1-1.872.186zm10.59-3.22h-1.449-.055v-.055l.015-1.93h-1.93-.06v-.06l.01-1.443.001-.055h1.991l.015-1.936v-.055H17.953v.055l-.015 1.936H19.929v.055l-.011 1.442-.001.06h-.06-1.93l-.016 1.931v.055h-.055z"/></svg></svg>