<svg width="16" height="15" xmlns="http://www.w3.org/2000/svg" xmlns:xlink="http://www.w3.org/1999/xlink" xmlns:svgjs="http://svgjs.com/svgjs" viewBox="0.497 0 15.007 15" fill="#a1a1a1"><svg xmlns="http://www.w3.org/2000/svg" width="16" height="15" viewBox="1.49 1.006 13.663 13.657"><path paint-order="stroke fill markers" fill-rule="evenodd" d="M4.34 14.461c-1.55-.4-2.473-1.41-2.72-2.978-.183-1.152-.202-6.505.13-7.668C2.184 2.3 3.195 1.412 4.727 1.16c.694-.114 2.052-.154 3.423-.154 1.275 0 2.56.035 3.335.077.938.05 1.796.351 2.493 1.02.665.637 1.005 1.432 1.09 2.332.102 1.074.168 6.154-.148 7.344-.424 1.558-1.44 2.48-3.016 2.732-.59.095-2.18.152-3.768.152-1.626 0-3.25-.06-3.796-.202zm.729-12.117c-1.191.138-1.992.873-2.183 2.058-.195 1.255-.193 5.951-.047 6.895.152.981.707 1.656 1.686 1.93.53.149 2.118.202 3.674.202 1.433 0 2.84-.045 3.368-.103 1.203-.132 1.998-.872 2.188-2.068.196-1.201.196-5.584.084-6.708-.122-1.202-.857-1.991-2.045-2.178-.589-.089-2.006-.129-3.416-.129-1.36 0-2.714.037-3.31.101zm-.25 5.491a3.53 3.53 0 0 1 3.531-3.5 3.471 3.471 0 0 1 3.473 3.506 3.535 3.535 0 0 1-3.531 3.5 3.468 3.468 0 0 1-3.474-3.506zm1.234-.022A2.245 2.245 0 0 0 8.279 10.1h.02c1.242 0 2.264-.999 2.285-2.243A2.242 2.242 0 0 0 8.357 5.57h-.02c-1.241 0-2.264 1-2.284 2.243zM11.17 4.2a.821.821 0 0 1 .819-.817H12c.45 0 .814.367.81.822a.828.828 0 0 1-.828.817.816.816 0 0 1-.811-.822z"/></svg></svg>